REM DIRINDEX 1\2,1\3,1\4,1\5,1\6
REM DIRNAME cjc030,folder01,folder02,folder03,folder04,folder05
TITLE ""
FILE "Disc4Track42.mp3" MP3
  TRACK 01 AUDIO
    TITLE "3:cjc030_07210"
    INDEX 01 00:00:00
  TRACK 02 AUDIO
    TITLE "0:"
    INDEX 01 00:01:01
  TRACK 03 AUDIO
    TITLE "4:cjc030_07211"
    INDEX 01 00:01:09
  TRACK 04 AUDIO
    TITLE "0:"
    INDEX 01 00:02:63
  TRACK 05 AUDIO
    TITLE "5:cjc030_07212"
    INDEX 01 00:02:73
  TRACK 06 AUDIO
    TITLE "0:"
    INDEX 01 00:03:74
  TRACK 07 AUDIO
    TITLE "6:cjc030_07213"
    INDEX 01 00:04:13
  TRACK 08 AUDIO
    TITLE "0:"
    INDEX 01 00:05:63
  TRACK 09 AUDIO
    TITLE "3:cjc030_07214"
    INDEX 01 00:06:37
  TRACK 10 AUDIO
    TITLE "0:"
    INDEX 01 00:07:47
  TRACK 11 AUDIO
    TITLE "4:cjc030_07215"
    INDEX 01 00:07:54
  TRACK 12 AUDIO
    TITLE "0:"
    INDEX 01 00:10:27
  TRACK 13 AUDIO
    TITLE "5:cjc030_07216"
    INDEX 01 00:10:37
  TRACK 14 AUDIO
    TITLE "0:"
    INDEX 01 00:11:44
  TRACK 15 AUDIO
    TITLE "6:cjc030_07217"
    INDEX 01 00:11:58
  TRACK 16 AUDIO
    TITLE "0:"
    INDEX 01 00:14:02
  TRACK 17 AUDIO
    TITLE "3:cjc030_07218"
    INDEX 01 00:14:53
  TRACK 18 AUDIO
    TITLE "0:"
    INDEX 01 00:15:62
  TRACK 19 AUDIO
    TITLE "4:cjc030_07219"
    INDEX 01 00:15:70
  TRACK 20 AUDIO
    TITLE "0:"
    INDEX 01 00:17:00
  TRACK 21 AUDIO
    TITLE "5:cjc030_07220"
    INDEX 01 00:17:06
  TRACK 22 AUDIO
    TITLE "0:"
    INDEX 01 00:18:19
  TRACK 23 AUDIO
    TITLE "3:cjc030_07221"
    INDEX 01 00:19:01
  TRACK 24 AUDIO
    TITLE "0:"
    INDEX 01 00:20:22
  TRACK 25 AUDIO
    TITLE "4:cjc030_07222"
    INDEX 01 00:20:30
  TRACK 26 AUDIO
    TITLE "0:"
    INDEX 01 00:22:48
  TRACK 27 AUDIO
    TITLE "5:cjc030_07223"
    INDEX 01 00:22:58
  TRACK 28 AUDIO
    TITLE "0:"
    INDEX 01 00:24:06
  TRACK 29 AUDIO
    TITLE "6:cjc030_07224"
    INDEX 01 00:24:20
  TRACK 30 AUDIO
    TITLE "0:"
    INDEX 01 00:26:30
  TRACK 31 AUDIO
    TITLE "3:cjc030_07225"
    INDEX 01 00:27:02
  TRACK 32 AUDIO
    TITLE "0:"
    INDEX 01 00:28:10
  TRACK 33 AUDIO
    TITLE "4:cjc030_07226"
    INDEX 01 00:28:19
  TRACK 34 AUDIO
    TITLE "0:"
    INDEX 01 00:30:26
  TRACK 35 AUDIO
    TITLE "5:cjc030_07227"
    INDEX 01 00:30:36
  TRACK 36 AUDIO
    TITLE "0:"
    INDEX 01 00:31:45
  TRACK 37 AUDIO
    TITLE "6:cjc030_07228"
    INDEX 01 00:31:55
  TRACK 38 AUDIO
    TITLE "0:"
    INDEX 01 00:34:53
  TRACK 39 AUDIO
    TITLE "3:cjc030_07229"
    INDEX 01 00:35:27
  TRACK 40 AUDIO
    TITLE "0:"
    INDEX 01 00:36:38
  TRACK 41 AUDIO
    TITLE "4:cjc030_07230"
    INDEX 01 00:36:46
  TRACK 42 AUDIO
    TITLE "0:"
    INDEX 01 00:39:21
  TRACK 43 AUDIO
    TITLE "5:cjc030_07231"
    INDEX 01 00:39:29
  TRACK 44 AUDIO
    TITLE "0:"
    INDEX 01 00:40:40
  TRACK 45 AUDIO
    TITLE "3:cjc030_07232"
    INDEX 01 00:41:20
  TRACK 46 AUDIO
    TITLE "0:"
    INDEX 01 00:42:18
  TRACK 47 AUDIO
    TITLE "4:cjc030_07233"
    INDEX 01 00:42:27
  TRACK 48 AUDIO
    TITLE "0:"
    INDEX 01 00:45:55
  TRACK 49 AUDIO
    TITLE "5:cjc030_07234"
    INDEX 01 00:45:63
  TRACK 50 AUDIO
    TITLE "0:"
    INDEX 01 00:46:62
  TRACK 51 AUDIO
    TITLE "6:cjc030_07235"
    INDEX 01 00:46:72
  TRACK 52 AUDIO
    TITLE "0:"
    INDEX 01 00:48:59
  TRACK 53 AUDIO
    TITLE "3:cjc030_07236"
    INDEX 01 00:49:33
  TRACK 54 AUDIO
    TITLE "0:"
    INDEX 01 00:50:35
  TRACK 55 AUDIO
    TITLE "4:cjc030_07237"
    INDEX 01 00:50:44
  TRACK 56 AUDIO
    TITLE "0:"
    INDEX 01 00:51:32
  TRACK 57 AUDIO
    TITLE "5:cjc030_07238"
    INDEX 01 00:51:42
  TRACK 58 AUDIO
    TITLE "0:"
    INDEX 01 00:52:45
  TRACK 59 AUDIO
    TITLE "6:cjc030_07239"
    INDEX 01 00:52:55
  TRACK 60 AUDIO
    TITLE "0:"
    INDEX 01 00:54:50
  TRACK 61 AUDIO
    TITLE "3:cjc030_07240"
    INDEX 01 00:55:24
  TRACK 62 AUDIO
    TITLE "0:"
    INDEX 01 00:56:27
  TRACK 63 AUDIO
    TITLE "4:cjc030_07241"
    INDEX 01 00:56:37
  TRACK 64 AUDIO
    TITLE "0:"
    INDEX 01 00:57:50
  TRACK 65 AUDIO
    TITLE "5:cjc030_07242"
    INDEX 01 00:57:60
  TRACK 66 AUDIO
    TITLE "0:"
    INDEX 01 00:58:62
  TRACK 67 AUDIO
    TITLE "6:cjc030_07243"
    INDEX 01 00:59:00
  TRACK 68 AUDIO
    TITLE "0:"
    INDEX 01 01:02:73
